P2
9 9
9
1 2 3 4 5 6 7 8 9
2 5 6 7 8 9 1 3 4
7 8 9 1 3 2 4 5 6
4 3 1 5 6 7 8 9 2
5 6 7 8 9 1 2 4 3
8 9 4 2 7 3 5 6 1
3 1 5 6 4 8 9 2 7
6 7 8 9 2 4 3 1 5
9 4 2 3 1 5 6 7 8
